# xmcd
#
# Track frame offsets:
#	150
#	23439
#	40736
#	58411
#	75287
#	93122
#	115235
#	131690
#	153108
#	180217
#	193911
#	206691
#	227989
#	249610
#	266498
#	285959
#
# Disc length: 4159 seconds
# Revision: 1
# Processed by: cddbd v1.5.2PL0 Copyright (c) Steve Scherf et al.
# Submitted via: cdrLabel 7.1
#
DISCID=ca103d10
DTITLE=Alan Parsons Project  - Eve [Remaster 2008] ( 1979 )  
DYEAR=1900
DGENRE=
TTITLE0=Lucifer
TTITLE1=You Lie Down With Dogs
TTITLE2=I'd Rather Be A Man
TTITLE3=You Won't Be There
TTITLE4=Winding Me Up
TTITLE5=Damned If I do
TTITLE6=Don't Hold Back
TTITLE7=Secret Garden
TTITLE8=If I Could Change Your Mind
TTITLE9=Elsie's Theme From The Sicilian 
TTITLE10=Lucifer (Demo)
TTITLE11=Secret Garden (Rough Mix)
TTITLE12=Damned If I Do (Rough Mix)
TTITLE13=Don't Hold Back (Vocal Rehearsal)
TTITLE14=Lucifer (Early Rough Mix)
TTITLE15=If I Could Change Your Mind (Rou
EXTD=
EXTT0=
EXTT1=
EXTT2=
EXTT3=
EXTT4=
EXTT5=
EXTT6=
EXTT7=
EXTT8=
EXTT9=
EXTT10=
EXTT11=
EXTT12=
EXTT13=
EXTT14=
EXTT15=
PLAYORDER=
